<?xml version="1.0" encoding="utf-8"?>
<!-- Generator: Adobe Illustrator 15.1.0, SVG Export Plug-In . SVG Version: 6.00 Build 0)  -->
<!DOCTYPE svg PUBLIC "-//W3C//DTD SVG 1.1//EN" "http://www.w3.org/Graphics/SVG/1.1/DTD/svg11.dtd">
<svg version="1.1" id="Capa_1" xmlns="http://www.w3.org/2000/svg" xmlns:xlink="http://www.w3.org/1999/xlink" x="0px" y="0px"
	 width="354.336px" height="49.062px" viewBox="0 -23.827 354.336 49.062" enable-background="new 0 -23.827 354.336 49.062"
	 xml:space="preserve">
<g>
	<g>
		<path fill="#FFFFFF" d="M19.591-10.292l-1.034-0.036l0.071,0.219c0.455,1.406,0.638,3.146,0.611,5.82l-0.033,5.601
			c0,3.188-0.136,4.382-0.634,5.562c-0.359,0.808-1.016,1.531-1.85,2.037c-1.074,0.618-2.415,0.945-3.876,0.945
			c-2.518,0-4.646-1.135-5.416-2.891c-0.493-1.145-0.605-2.05-0.605-4.847l0.061-6.686C6.92-6.37,6.92-7.477,6.918-7.884
			c0.038-0.659,0.109-1.431,0.214-2.289l0.024-0.191l-1.174,0.072H3.117l-0.882-0.031l-0.734,1.63h0.558
			c0.813,0,1.22,0.251,1.359,0.84C3.577-7.214,3.66-6.11,3.66-4.659L3.628,1.027L3.599,3.362C3.567,6.497,4.063,8.278,5.373,9.719
			c0.658,0.692,1.52,1.25,2.554,1.651c1.292,0.576,2.819,0.855,4.673,0.855c2.461,0,4.521-0.555,6.119-1.645
			c1.925-1.337,2.91-3.264,3.097-6.062c0.061-0.791,0.092-1.683,0.092-2.651l0.033-6.157c0.03-2.995,0.087-3.63,0.399-5.85
			l0.026-0.191l-1.05,0.034L19.591-10.292L19.591-10.292z"/>
		<path fill="#FFFFFF" d="M39.368-8.089l-0.879-0.036l0.077,0.222c0.414,1.218,0.661,3.572,0.661,6.296L39.2,4.753l0.061,1.413
			L30.977-4.529c-1.052-1.357-1.45-1.954-2.37-3.539L28.56-8.152L27.106-8.09l-2.485,0.001l-0.778-0.032l-0.654,1.456h0.517
			c0.692,0,1.038,0.212,1.155,0.713c0.124,0.497,0.185,1.417,0.185,2.814l-0.028,8.452V7.63c0,0.64-0.072,1.245-0.16,1.925
			c-0.022,0.236-0.072,0.639-0.185,1.188l-0.042,0.209l0.976-0.063l1.515-0.002l0.938,0.069l-0.077-0.231
			c-0.385-1.133-0.608-3.097-0.608-5.383L27.4-3.656l-0.033-0.864L29.2-2.124l7.896,10.042c0.856,1.097,1.289,1.691,2.319,3.277
			l0.048,0.072l1.185-0.028h1.193l-0.015-0.177c-0.125-1.416-0.158-1.963-0.228-3.168l-0.014-0.246
			c-0.026-0.67-0.026-1.206-0.026-1.637l0.026-7.587c0-1.023,0.012-1.83,0.02-2.421c0.005-0.343,0.009-0.613,0.009-0.812
			c0-0.595,0.042-1.211,0.132-1.944c0.03-0.303,0.092-0.694,0.186-1.172l0.038-0.198l-0.972,0.033H39.368z"/>
		<path fill="#FFFFFF" d="M48.141,5.689l0.024-8.802c0-1.842,0.043-2.662,0.055-2.872c0.023-0.405,0.072-0.983,0.159-1.986
			l0.017-0.188L47.389-8.09l-2.483,0.001l-0.777-0.032l-0.656,1.456h0.518c0.69,0,1.036,0.211,1.154,0.712
			c0.126,0.503,0.185,1.379,0.185,2.76l-0.027,8.856c0,2.477-0.027,2.733-0.186,3.893c-0.022,0.241-0.071,0.601-0.161,1.197
			l-0.03,0.199l0.938-0.064h1.941l0.936,0.067l-0.073-0.229C48.294,9.571,48.141,8.109,48.141,5.689z"/>
		<path fill="#FFFFFF" d="M66.232-8.09h-2l-1.084-0.034l0.068,0.217c0.155,0.477,0.18,0.672,0.18,1.025
			c0,0.963-0.318,2.202-1.06,4.145l-2.895,7.589L58.353,7.63l-0.802-2.528l-2.944-8.645c-0.622-1.787-0.914-2.764-1.011-3.375
			c-0.037-0.165-0.06-0.397-0.09-0.693l-0.059-0.544l-1.083,0.064h-2.107l-0.776-0.031l-0.657,1.456h0.517
			c0.613,0,0.865,0.184,1.219,0.905c0.377,0.816,0.723,1.704,1.041,2.542l4.335,11.866c0.45,1.275,0.528,1.562,0.689,2.562
			l0.023,0.146l0.806-0.068h1.159l0.711,0.07l0.026-0.144c0.263-1.323,0.362-1.624,1.171-3.577l4.52-10.951
			c0.163-0.378,0.404-0.915,0.748-1.668c0.323-0.697,0.564-1.209,0.718-1.525c0.161-0.297,0.403-0.728,0.72-1.289l0.051-0.088
			l-0.188-0.27L66.232-8.09z"/>
		<path fill="#FFFFFF" d="M80.378,7.726c-0.518,0.496-0.772,0.681-1.243,0.891c-0.314,0.146-0.679,0.255-1.032,0.31
			c-0.689,0.129-1.447,0.188-2.458,0.188c-1.509,0-2.089-0.122-2.478-0.517c-0.289-0.312-0.388-0.678-0.44-1.621L72.724,6.93
			c-0.026-0.49-0.048-0.875-0.048-1.181V1.861c0.958-0.043,1.379-0.043,2.059-0.043c0.839,0,1.694,0.025,2.621,0.078
			c0.264,0,0.652,0.026,1.188,0.078l0.193,0.02l-0.069-0.738l0.026-0.816l0.109-0.764l-0.621,0.053
			c-0.983,0.081-1.475,0.125-2.46,0.125h-3.023v-3.04l0.103-3.11c0.771-0.05,1.428-0.069,1.797-0.069
			c0.986,0,1.845,0.104,2.554,0.313c0.605,0.178,0.821,0.317,1.286,0.845l0.06,0.065l0.516-0.086l0.21-0.768l0.344-1.094l0.44-1.089
			l-0.97,0.028c-1.209,0.04-1.817,0.06-4.383,0.06h-3.719l-2.274-0.026l-0.651,1.452h0.515c0.691,0,1.036,0.211,1.154,0.714
			c0.125,0.493,0.182,1.369,0.182,2.757l-0.026,8.857c0,2.438-0.021,2.688-0.186,3.891c-0.029,0.279-0.083,0.693-0.159,1.2
			l-0.027,0.189l2.836-0.057l3.585,0.051c1.422,0.021,2.374,0.041,2.86,0.05c0.22,0.004,0.347,0.008,0.379,0.008
			c0.158,0,0.389,0.016,0.694,0.032l0.482,0.029l0.216-1.104l0.237-1.044l0.277-0.991L80.46,7.647L80.378,7.726z"/>
		<path fill="#FFFFFF" d="M96.556,9.482c-0.782-0.786-1.673-1.954-2.979-3.908l-2.705-3.988l-0.506-0.687
			c1.213-0.642,1.92-1.142,2.498-1.751c0.721-0.773,1.116-1.854,1.116-3.044c0-1.373-0.504-2.545-1.424-3.301
			c-0.964-0.767-1.85-0.977-4.115-0.977c-0.596,0-1.211,0-1.907,0.022L84.002-8.07l-2.25-0.053l-0.655,1.454h0.518
			c0.689,0,1.035,0.211,1.156,0.711c0.124,0.505,0.182,1.381,0.182,2.76l-0.026,8.856c0,2.604-0.063,3.243-0.349,5.089l-0.032,0.201
			l0.942-0.065h1.942l0.933,0.069l-0.073-0.229c-0.372-1.15-0.525-2.61-0.525-5.035l0.027-8.804c0-1.781,0.02-2.202,0.059-3.041
			l0.013-0.261c0.913-0.123,1.312-0.146,1.748-0.146c2.146,0,3.428,1.188,3.428,3.184c0,1.503-0.751,2.727-1.961,3.186
			c-0.66,0.264-1.124,0.312-2.38,0.34l-0.132,0.003l-0.128,0.763L86.23,1.784h0.473c0.594,0,1.009,0.207,1.901,1.441
			c1.621,2.215,2.529,3.593,3.741,5.668c0.276,0.466,0.454,0.81,0.562,1.021c0.101,0.18,0.181,0.322,0.239,0.432
			c0.051,0.092,0.087,0.157,0.121,0.211c0.078,0.102,0.181,0.264,0.311,0.467l0.05,0.082l1.214-0.084l2.038-0.053l0.833-0.035
			l0.053-0.414l-0.073-0.057C97.148,10.055,96.967,9.894,96.556,9.482z"/>
		<path fill="#FFFFFF" d="M105.181-0.318c-1.808-0.981-2.398-1.392-2.965-1.888c-0.562-0.517-0.86-1.191-0.86-1.957
			c0-1.623,1.259-2.716,3.132-2.716c1.535,0,2.451,0.471,3.375,1.733l0.058,0.077l0.551-0.08l0.157-0.665l0.396-1.256l0.362-0.905
			l-0.162-0.057c-1.414-0.473-1.977-0.6-3.008-0.681c-0.31-0.025-0.642-0.054-0.979-0.054c-3.878,0-6.481,2.217-6.481,5.517
			c0,1.281,0.464,2.47,1.307,3.346c0.757,0.759,1.154,1.02,3.544,2.314c1.581,0.859,2.304,1.386,2.865,2.086
			c0.429,0.525,0.663,1.222,0.663,1.939c0,1.83-1.554,3.209-3.612,3.209c-0.787,0-1.698-0.272-2.326-0.7
			c-0.483-0.306-0.706-0.584-1.178-1.324l-0.062-0.094l-0.586,0.126l-0.5,1.998l-0.341,1.088l0.143,0.053
			c1.354,0.498,1.874,0.604,2.962,0.708l0.186,0.014c0.305,0.022,0.594,0.045,0.868,0.045c4.127,0,7.122-2.604,7.122-6.191
			c0-1.149-0.345-2.209-0.999-3.062C108.073,1.368,107.394,0.876,105.181-0.318z"/>
		<path fill="#FFFFFF" d="M114.977,5.689l0.033-8.802c0-1.28,0.018-2.354,0.048-2.872c0.03-0.459,0.083-1.111,0.162-1.986
			l0.017-0.188l-1.009,0.069l-2.481,0.001l-0.778-0.032l-0.659,1.456h0.521c0.695,0,1.039,0.211,1.156,0.712
			c0.123,0.506,0.183,1.409,0.183,2.76l-0.027,8.856c0,2.461-0.028,2.723-0.188,3.893c-0.024,0.263-0.078,0.652-0.157,1.197
			l-0.03,0.199l0.935-0.064h1.944l0.935,0.067l-0.076-0.229C115.137,9.584,114.977,8.076,114.977,5.689z"/>
		<path fill="#FFFFFF" d="M132.127-7.127c-1.208-0.639-2.549-0.908-4.776-0.962c-0.671-0.027-1.48-0.027-2.415-0.027
			c-0.551,0-1.268,0.007-1.984,0.015c-0.717,0.008-1.431,0.014-1.979,0.014h-2.483l-0.778-0.032l-0.652,1.456h0.516
			c0.692,0,1.037,0.212,1.157,0.712c0.124,0.502,0.181,1.379,0.181,2.76l-0.028,8.856c0,2.491-0.027,2.748-0.187,3.892
			c-0.024,0.26-0.075,0.65-0.159,1.198l-0.029,0.2l0.937-0.064h1.957c0.982,0,1.76,0.028,2.387,0.057
			c0.391,0.014,0.71,0.025,0.959,0.025c3.452,0,5.772-0.688,7.756-2.3c2.334-1.86,3.671-4.804,3.671-8.068
			C136.176-2.896,134.663-5.784,132.127-7.127z M125.311,9.087c-1.048,0-1.984-0.091-2.497-0.242
			c-0.23-0.063-0.421-0.182-0.597-0.354c-0.286-0.312-0.387-0.693-0.439-1.628L121.77,6.72c-0.024-0.396-0.046-0.773-0.046-1.086
			l0.027-8.744l0.078-3.104l0.839-0.043c1.082-0.057,1.735-0.088,2.4-0.088c3.148,0,4.806,0.549,6.116,2.021
			c1.181,1.342,1.832,3.332,1.832,5.603C133.016,6.166,130.137,9.087,125.311,9.087z"/>
		<path fill="#FFFFFF" d="M152.306,9.552c-0.667-1.341-1.216-2.589-1.549-3.514l-4.443-11.873c-0.452-1.167-0.558-1.584-0.823-2.724
			l-0.036-0.149l-0.737,0.134l-1.842,0.285l-0.026,0.104c-0.348,1.328-0.475,1.783-1.122,3.347l-4.441,10.981
			c-0.161,0.41-0.404,0.971-0.72,1.66l-0.188,0.396c-0.229,0.477-0.411,0.856-0.559,1.135c-0.132,0.266-0.346,0.669-0.639,1.205
			l-0.045,0.085l0.208,0.32l0.808-0.059l1.839-0.002l1.053,0.065l-0.062-0.223c-0.154-0.539-0.179-0.793-0.179-1.19
			c0-0.775,0.258-1.88,0.767-3.281l0.871-2.348l1.76-0.052h3.181l1.528,0.052l0.872,2.561c0.55,1.605,0.807,2.409,0.959,3.238
			c0.039,0.171,0.077,0.424,0.126,0.741l0.079,0.525l1.315-0.092h1.702l1.144,0.069l-0.162-0.264
			C152.648,10.219,152.543,10.034,152.306,9.552z M146.235,2.038l-1.171,0.048h-2.593l-1.355-0.048l2.681-7.098L146.235,2.038z"/>
		<path fill="#FFFFFF" d="M167.462-7.127c-1.208-0.641-2.55-0.908-4.779-0.962c-0.672-0.027-1.48-0.027-2.416-0.027
			c-0.548,0-1.264,0.007-1.98,0.015c-0.717,0.008-1.431,0.014-1.98,0.014h-2.484l-0.778-0.031l-0.655,1.456h0.516
			c0.692,0,1.038,0.211,1.156,0.712c0.124,0.502,0.187,1.404,0.187,2.759l-0.027,8.857c0,2.458-0.027,2.721-0.189,3.891
			c-0.026,0.269-0.084,0.67-0.159,1.2l-0.027,0.198l0.938-0.064h1.953c0.979,0,1.759,0.028,2.383,0.058
			c0.393,0.014,0.712,0.024,0.963,0.024c3.452,0,5.771-0.688,7.753-2.3c2.334-1.86,3.675-4.804,3.675-8.067
			C171.511-2.896,169.998-5.784,167.462-7.127z M160.644,9.087c-1.045,0-1.981-0.091-2.496-0.242
			c-0.233-0.065-0.424-0.184-0.596-0.354c-0.287-0.312-0.386-0.678-0.44-1.627l-0.013-0.262c-0.022-0.354-0.042-0.688-0.042-0.967
			l0.031-8.744l0.076-3.104l0.831-0.042c1.086-0.056,1.739-0.089,2.409-0.089c3.15,0,4.808,0.55,6.116,2.021
			c1.182,1.344,1.834,3.334,1.834,5.602C168.353,6.166,165.471,9.087,160.644,9.087z"/>
		<path fill="#FFFFFF" d="M189.104-4.63c-0.896-0.473-1.932-0.68-3.563-0.718c-0.498-0.021-1.099-0.021-1.793-0.021
			c-0.408,0-0.938,0.004-1.472,0.01c-0.528,0.005-1.061,0.011-1.467,0.011h-1.844l-0.604-0.023l-0.523,1.165h0.449
			c0.613,0,0.754,0.25,0.814,0.496c0.092,0.369,0.135,1.017,0.135,2.043l-0.021,6.565c0,1.809-0.014,2.021-0.137,2.884
			c-0.02,0.198-0.061,0.497-0.117,0.888l-0.031,0.198l0.744-0.048h1.449c0.729,0,1.309,0.021,1.771,0.04
			c0.291,0.011,0.526,0.02,0.713,0.02c2.572,0,4.301-0.515,5.776-1.716c1.744-1.385,2.744-3.577,2.744-6.018
			C192.129-1.469,190.999-3.626,189.104-4.63z M184.025,7.392c-0.787,0-1.479-0.063-1.84-0.17c-0.17-0.053-0.307-0.135-0.428-0.252
			c-0.207-0.228-0.277-0.492-0.314-1.18l-0.014-0.29c-0.014-0.229-0.022-0.438-0.022-0.618l0.021-6.494l0.055-2.266l0.734-0.036
			c0.703-0.033,1.166-0.056,1.628-0.056c2.354,0,3.534,0.388,4.507,1.481c0.871,0.991,1.353,2.458,1.353,4.129
			C189.704,5.244,187.581,7.392,184.025,7.392z"/>
		<path fill="#FFFFFF" d="M201.609,6.398c-0.377,0.361-0.565,0.494-0.907,0.649c-0.238,0.107-0.5,0.19-0.761,0.231
			c-0.508,0.093-1.065,0.137-1.815,0.137c-1.09,0-1.531-0.092-1.812-0.369c-0.205-0.226-0.274-0.49-0.313-1.18l-0.012-0.23
			c-0.015-0.27-0.025-0.492-0.025-0.679V2.116c0.681-0.032,0.99-0.032,1.486-0.032c0.584,0,1.198,0.018,1.944,0.057
			c0.189,0,0.476,0.021,0.881,0.062l0.197,0.02l-0.062-0.601l0.019-0.599l0.092-0.617l-0.51,0.042
			c-0.729,0.063-1.095,0.094-1.828,0.094h-2.201v-2.207l0.076-2.272c0.506-0.034,0.987-0.055,1.291-0.055
			c0.702,0,1.354,0.081,1.883,0.234c0.442,0.132,0.6,0.232,0.94,0.613l0.062,0.066l0.42-0.074l0.42-1.396l0.352-0.869l-0.766,0.022
			c-0.932,0.029-1.354,0.043-3.27,0.043h-2.761l-1.713-0.02l-0.522,1.162h0.448c0.615,0,0.757,0.249,0.816,0.495
			c0.09,0.374,0.135,1.041,0.135,2.044l-0.021,6.565c0,1.844-0.022,2.021-0.141,2.882c-0.021,0.198-0.059,0.495-0.119,0.888
			l-0.031,0.188l2.158-0.039l2.656,0.037c1.062,0.018,1.77,0.031,2.131,0.039c0.158,0.002,0.252,0.006,0.277,0.006
			c0.123,0,0.307,0.012,0.557,0.025l0.35,0.022l0.166-0.856l0.179-0.771l0.209-0.771l-0.476-0.227L201.609,6.398z"/>
		<path fill="#FFFFFF" d="M226.792,7.923c-1.215,0.896-1.711,1.096-3.031,1.438c-1.061,0.251-1.924,0.366-2.717,0.366
			c-5.078,0-8.489-3.832-8.489-9.537c0-5.519,3.065-8.946,8.002-8.946c2.422,0,4.061,0.709,5.469,2.365l0.047,0.056h0.631
			l0.279-1.045l0.371-1.237l0.393-1.183l-0.156-0.048c-1.443-0.472-2.041-0.631-3.213-0.781c-0.934-0.13-1.766-0.189-2.619-0.189
			c-3.865,0-6.727,0.891-9.004,2.805c-2.494,2.123-3.92,5.271-3.92,8.641c0,4.425,2.291,8.438,5.838,10.213
			c1.555,0.784,3.555,1.198,5.793,1.198c0.943,0,2.188-0.084,3.168-0.216l0.043-0.008c0.725-0.119,1.293-0.219,2.73-0.59l0.09-0.021
			l0.301-1.048l0.336-1.02l0.322-0.857l-0.562-0.428L226.792,7.923z"/>
		<path fill="#FFFFFF" d="M237.891-8.843c-5.799,0-10.172,4.456-10.172,10.36c0,5.942,3.844,10.096,9.342,10.096
			c6.078,0,10.488-4.45,10.488-10.577C247.547-4.965,243.756-8.843,237.891-8.843z M237.674,9.756c-3.939,0-6.689-3.584-6.689-8.72
			c0-4.873,2.627-8.022,6.689-8.022c3.893,0,6.613,3.609,6.613,8.774C244.288,6.629,241.691,9.756,237.674,9.756z"/>
		<path fill="#FFFFFF" d="M254.855-0.318c-1.809-0.981-2.396-1.391-2.965-1.888c-0.562-0.517-0.856-1.191-0.856-1.957
			c0-1.623,1.256-2.716,3.129-2.716c1.534,0,2.45,0.471,3.379,1.733l0.056,0.077l0.551-0.08l0.162-0.665l0.395-1.257l0.354-0.907
			L258.9-8.031c-1.405-0.473-1.967-0.6-3.006-0.681c-0.293-0.025-0.639-0.056-0.977-0.056c-3.877,0-6.48,2.218-6.48,5.519
			c0,1.283,0.465,2.47,1.308,3.345c0.75,0.754,1.146,1.017,3.541,2.314c1.578,0.856,2.301,1.385,2.866,2.087
			c0.429,0.525,0.662,1.222,0.662,1.939c0,1.828-1.553,3.207-3.61,3.207c-0.793,0-1.703-0.271-2.326-0.698
			c-0.483-0.308-0.721-0.601-1.18-1.324l-0.062-0.095l-0.586,0.125l-0.502,2l-0.342,1.087l0.146,0.054
			c1.354,0.498,1.873,0.604,2.963,0.707l0.186,0.015c0.307,0.022,0.596,0.045,0.873,0.045c4.123,0,7.116-2.604,7.116-6.193
			c0-1.147-0.343-2.207-0.997-3.062C257.749,1.367,257.066,0.874,254.855-0.318z"/>
		<path fill="#FFFFFF" d="M269.674,5.689l0.027-8.878l0.098-3.204c2.01,0.025,2.461,0.048,3.305,0.155
			c0.4,0.059,0.76,0.146,1.097,0.262c0.5,0.181,0.723,0.347,1.227,0.831l0.052,0.049l0.545-0.043l0.149-0.785l0.293-1.151
			l0.367-1.101l-2.211,0.046c-2.442,0.049-4.55,0.094-6.36,0.094c-1.808,0-3.832-0.046-6.173-0.1l-1.739-0.04l-0.093,1.06
			l-0.161,1.242l-0.068,0.762l0.58,0.039l0.053-0.05c0.467-0.438,0.697-0.596,1.18-0.798c0.805-0.323,1.549-0.424,3.314-0.443
			c0.17,0,0.373-0.006,0.606-0.013c0.283-0.007,0.617-0.016,1.003-0.017c0.01,0.272,0.014,0.523,0.021,0.75
			c0.006,0.333,0.012,0.609,0.027,0.815c0.026,0.834,0.026,1.376,0.026,1.634l-0.026,8.856l-0.002,0.123
			c-0.023,2.361-0.025,2.607-0.187,3.771c-0.021,0.223-0.072,0.611-0.183,1.192l-0.041,0.204l1.002-0.062l1.939-0.002l0.91,0.07
			l-0.074-0.23C269.816,9.626,269.674,8.216,269.674,5.689z"/>
		<path fill="#FFFFFF" d="M289.676,9.552c-0.668-1.351-1.219-2.598-1.547-3.514l-4.439-11.873c-0.444-1.151-0.555-1.572-0.823-2.724
			l-0.037-0.149l-1.908,0.323l-0.67,0.097l-0.024,0.103c-0.345,1.315-0.472,1.764-1.121,3.347l-4.443,10.983
			c-0.133,0.34-0.369,0.901-0.721,1.66l-0.113,0.238c-0.262,0.551-0.465,0.983-0.633,1.293c-0.103,0.203-0.295,0.577-0.639,1.204
			l-0.048,0.088l0.216,0.317l0.805-0.06h1.838l1.057,0.064l-0.062-0.222c-0.155-0.553-0.182-0.814-0.182-1.188
			c0-0.773,0.258-1.879,0.769-3.283l0.868-2.347l1.763-0.053h3.185l1.519,0.051l0.875,2.562c0.532,1.553,0.8,2.392,0.956,3.238
			c0.057,0.232,0.106,0.598,0.184,1.1l0.023,0.172l1.313-0.094h1.703l1.142,0.07l-0.16-0.265
			C290.018,10.211,289.917,10.029,289.676,9.552z M283.611,2.038l-1.172,0.048h-2.59l-1.354-0.048l2.682-7.098L283.611,2.038z"/>
		<path fill="#FFFFFF" d="M311.688,9.99c-0.916-0.919-1.946-2.271-3.446-4.512l-3.121-4.607l-0.603-0.813
			c1.416-0.751,2.238-1.326,2.906-2.026c0.824-0.894,1.279-2.135,1.279-3.495c0-1.579-0.578-2.926-1.635-3.798
			c-1.107-0.881-2.127-1.12-4.738-1.12c-0.686,0-1.393,0-2.195,0.029l-2.93,0.095l-2.582-0.064l-0.732,1.63h0.562
			c0.812,0,1.217,0.251,1.354,0.84c0.146,0.58,0.215,1.595,0.215,3.194l-0.033,10.23c0,2.861-0.051,3.634-0.399,5.88l-0.03,0.201
			l1.055-0.081h2.242l1.047,0.084l-0.076-0.229c-0.43-1.339-0.607-3.029-0.607-5.828l0.029-10.166c0-2.045,0.021-2.53,0.07-3.499
			l0.016-0.337c1.064-0.139,1.527-0.162,2.041-0.162c2.494,0,3.98,1.378,3.98,3.69c0,1.754-0.873,3.173-2.279,3.705
			c-0.762,0.306-1.301,0.359-2.756,0.394l-0.135,0.002l-0.144,0.866l-0.235,0.979h0.516c0.783,0,1.281,0.374,2.223,1.672
			c1.881,2.585,2.93,4.175,4.316,6.546c0.311,0.521,0.52,0.923,0.645,1.181c0.111,0.188,0.195,0.344,0.264,0.467
			c0.066,0.125,0.115,0.211,0.152,0.267c0.084,0.108,0.195,0.278,0.363,0.548l0.051,0.082l1.385-0.102l2.353-0.061l0.938-0.037
			l0.064-0.443L313,11.129C312.393,10.672,312.184,10.489,311.688,9.99z"/>
		<path fill="#FFFFFF" d="M317.499,5.689l0.024-8.802c0-1.428,0.025-2.419,0.052-2.872c0.022-0.417,0.073-1.015,0.166-1.986
			l0.016-0.189l-1.008,0.069l-2.485,0.001l-0.777-0.032l-0.654,1.456h0.518c0.691,0,1.037,0.212,1.154,0.713
			c0.127,0.5,0.184,1.377,0.184,2.758l-0.024,8.857c0,2.474-0.027,2.732-0.187,3.894c-0.022,0.237-0.074,0.608-0.162,1.196
			l-0.026,0.2l0.937-0.064l1.944-0.002l0.931,0.069l-0.074-0.229C317.648,9.575,317.499,8.113,317.499,5.689z"/>
		<path fill="#FFFFFF" d="M329.917-6.719c2.092,0,3.504,0.61,4.728,2.042l0.043,0.059h0.569l0.244-0.923l0.321-1.074l0.347-1.041
			l-0.151-0.05c-1.236-0.403-1.754-0.543-2.787-0.679c-0.81-0.11-1.529-0.163-2.271-0.163c-3.351,0-5.834,0.773-7.813,2.435
			c-2.162,1.846-3.398,4.577-3.398,7.499c0,3.84,1.984,7.317,5.062,8.864c1.354,0.683,3.09,1.039,5.021,1.039
			c0.84,0,1.922-0.073,2.758-0.188c0.623-0.104,1.115-0.184,2.398-0.512l0.09-0.021l0.264-0.919l0.289-0.883l0.283-0.762
			l-0.512-0.385l-0.096,0.069c-1.054,0.769-1.48,0.943-2.619,1.238c-0.933,0.219-1.676,0.32-2.347,0.32
			c-4.387,0-7.332-3.312-7.332-8.239C323.01-3.759,325.657-6.719,329.917-6.719z"/>
		<path fill="#FFFFFF" d="M354.176,10.695c-0.291-0.477-0.391-0.657-0.637-1.145c-0.662-1.328-1.209-2.574-1.543-3.515
			l-4.441-11.873c-0.447-1.148-0.555-1.57-0.826-2.724l-0.033-0.149l-1.913,0.323l-0.668,0.097l-0.027,0.104
			c-0.336,1.312-0.463,1.76-1.116,3.346l-4.443,10.982c-0.17,0.436-0.418,1.01-0.721,1.66l-0.027,0.061
			c-0.301,0.633-0.537,1.131-0.723,1.474c-0.146,0.293-0.373,0.725-0.638,1.203l-0.047,0.088l0.217,0.317l0.806-0.059h1.838
			l1.057,0.064l-0.062-0.222c-0.154-0.536-0.18-0.791-0.18-1.191c0-0.788,0.258-1.896,0.764-3.28l0.871-2.349l1.762-0.051h3.183
			l1.521,0.05l0.873,2.561c0.547,1.598,0.801,2.399,0.957,3.239c0.043,0.181,0.082,0.435,0.131,0.763l0.082,0.506l1.312-0.092h1.703
			l1.139,0.07L354.176,10.695z M347.473,2.038l-1.168,0.048h-2.59l-1.355-0.048l2.677-7.098L347.473,2.038z"/>
	</g>
</g>
</svg>
