<?xml version="1.0" encoding="utf-8"?>
<!-- Generator: Adobe Illustrator 15.1.0, SVG Export Plug-In . SVG Version: 6.00 Build 0)  -->
<!DOCTYPE svg PUBLIC "-//W3C//DTD SVG 1.1//EN" "http://www.w3.org/Graphics/SVG/1.1/DTD/svg11.dtd">
<svg version="1.1" id="Capa_1" xmlns="http://www.w3.org/2000/svg" xmlns:xlink="http://www.w3.org/1999/xlink" x="0px" y="0px"
	 width="287.668px" height="49.062px" viewBox="0 0 287.668 49.062" enable-background="new 0 0 287.668 49.062"
	 xml:space="preserve">
<g>
	<g>
		<path fill="#FFFFFF" d="M16.076,15.672l-0.833-0.029l0.057,0.177c0.367,1.133,0.515,2.534,0.493,4.689l-0.026,4.513
			c0,2.568-0.11,3.53-0.511,4.481c-0.289,0.651-0.818,1.233-1.49,1.641c-0.865,0.498-1.946,0.762-3.123,0.762
			c-2.029,0-3.743-0.914-4.364-2.329c-0.397-0.923-0.488-1.651-0.488-3.905l0.049-5.387c0.027-1.452,0.027-2.344,0.025-2.672
			c0.031-0.531,0.088-1.152,0.173-1.845l0.019-0.154l-0.946,0.059H2.803l-0.711-0.025L1.501,16.96h0.45
			c0.654,0,0.982,0.203,1.095,0.677c0.128,0.515,0.194,1.405,0.194,2.573l-0.025,4.582l-0.023,1.881
			c-0.026,2.525,0.374,3.961,1.43,5.121c0.529,0.559,1.225,1.008,2.058,1.332c1.041,0.464,2.271,0.688,3.765,0.688
			c1.982,0,3.643-0.448,4.93-1.326c1.551-1.077,2.345-2.63,2.496-4.884c0.049-0.637,0.074-1.356,0.074-2.136l0.026-4.961
			c0.024-2.414,0.07-2.925,0.322-4.713l0.021-0.154l-0.846,0.027L16.076,15.672L16.076,15.672z"/>
		<path fill="#FFFFFF" d="M32.011,17.447l-0.708-0.029l0.062,0.179c0.333,0.981,0.532,2.878,0.532,5.073l-0.021,5.124l0.049,1.139
			l-6.675-8.617c-0.848-1.094-1.168-1.574-1.91-2.852l-0.038-0.067l-1.172,0.05l-2.002,0.001l-0.627-0.026l-0.527,1.174h0.417
			c0.557,0,0.836,0.17,0.931,0.573c0.1,0.4,0.149,1.143,0.149,2.268l-0.023,6.811v1.866c0,0.516-0.058,1.002-0.129,1.551
			c-0.018,0.189-0.058,0.515-0.149,0.957l-0.034,0.168l0.787-0.051l1.221-0.001l0.755,0.056l-0.062-0.186
			c-0.31-0.914-0.49-2.496-0.49-4.339l0.02-7.25l-0.026-0.694l1.477,1.93l6.362,8.09c0.689,0.885,1.038,1.364,1.868,2.642
			l0.039,0.058l0.954-0.021h0.961l-0.012-0.143c-0.101-1.142-0.127-1.582-0.183-2.553l-0.012-0.199
			c-0.021-0.539-0.021-0.971-0.021-1.318l0.021-6.114c0-0.823,0.01-1.474,0.017-1.95c0.004-0.275,0.007-0.493,0.007-0.653
			c0-0.479,0.034-0.976,0.106-1.566c0.024-0.244,0.074-0.56,0.15-0.944l0.03-0.16l-0.783,0.027L32.011,17.447L32.011,17.447z"/>
		<path fill="#FFFFFF" d="M39.079,28.548l0.019-7.091c0-1.485,0.035-2.146,0.045-2.314c0.019-0.326,0.057-0.792,0.128-1.601
			l0.014-0.152l-0.812,0.057l-2,0.001l-0.626-0.026l-0.528,1.174h0.417c0.556,0,0.835,0.169,0.93,0.573
			c0.102,0.404,0.149,1.111,0.149,2.224l-0.021,7.135c0,1.997-0.022,2.203-0.15,3.138c-0.018,0.193-0.057,0.483-0.129,0.964
			l-0.025,0.16l0.756-0.051h1.563l0.754,0.053l-0.059-0.184C39.202,31.677,39.079,30.497,39.079,28.548z"/>
		<path fill="#FFFFFF" d="M53.655,17.446h-1.611l-0.874-0.027l0.055,0.174c0.125,0.385,0.145,0.543,0.145,0.826
			c0,0.776-0.256,1.774-0.854,3.34l-2.333,6.115l-0.876,2.238l-0.646-2.037l-2.372-6.966c-0.501-1.44-0.736-2.227-0.814-2.719
			c-0.029-0.134-0.048-0.319-0.073-0.559l-0.047-0.438l-0.873,0.052h-1.697l-0.625-0.025l-0.529,1.174h0.417
			c0.494,0,0.697,0.148,0.982,0.729c0.304,0.658,0.583,1.373,0.839,2.049l3.493,9.561c0.363,1.026,0.425,1.258,0.555,2.063
			l0.019,0.118l0.649-0.056h0.934l0.573,0.058l0.021-0.116c0.212-1.066,0.291-1.309,0.943-2.883l3.642-8.823
			c0.131-0.304,0.325-0.736,0.603-1.343c0.26-0.562,0.455-0.975,0.579-1.229c0.129-0.239,0.325-0.586,0.58-1.039l0.041-0.07
			l-0.152-0.218L53.655,17.446z"/>
		<path fill="#FFFFFF" d="M65.052,30.189c-0.417,0.399-0.622,0.549-1.001,0.718c-0.253,0.117-0.547,0.205-0.831,0.25
			c-0.555,0.104-1.166,0.151-1.98,0.151c-1.216,0-1.684-0.099-1.997-0.416c-0.232-0.252-0.313-0.548-0.354-1.306l-0.002-0.039
			c-0.021-0.395-0.039-0.704-0.039-0.951v-3.133c0.772-0.035,1.111-0.035,1.659-0.035c0.676,0,1.365,0.02,2.111,0.063
			c0.213,0,0.525,0.021,0.958,0.062l0.156,0.017l-0.056-0.596l0.021-0.656l0.088-0.616l-0.5,0.043
			c-0.792,0.065-1.188,0.101-1.982,0.101h-2.436v-2.449l0.083-2.506c0.622-0.04,1.151-0.056,1.448-0.056
			c0.794,0,1.486,0.084,2.058,0.252c0.487,0.144,0.662,0.256,1.036,0.681l0.048,0.053l0.416-0.069l0.169-0.619l0.277-0.881
			l0.354-0.877l-0.782,0.022c-0.973,0.032-1.463,0.048-3.531,0.048h-2.997l-1.832-0.021l-0.524,1.171h0.415
			c0.556,0,0.834,0.169,0.929,0.574c0.101,0.397,0.146,1.104,0.146,2.222l-0.021,7.136c0,1.965-0.018,2.167-0.15,3.137
			c-0.022,0.224-0.066,0.557-0.128,0.966l-0.022,0.152l2.286-0.046l2.888,0.041c1.146,0.017,1.913,0.033,2.305,0.041
			c0.177,0.002,0.279,0.006,0.305,0.006c0.127,0,0.314,0.012,0.559,0.025l0.389,0.023l0.174-0.889l0.19-0.842l0.224-0.799
			l-0.46-0.217L65.052,30.189z"/>
		<path fill="#FFFFFF" d="M78.087,31.604c-0.63-0.634-1.348-1.574-2.4-3.148l-2.179-3.214L73.1,24.689
			c0.977-0.519,1.547-0.922,2.012-1.411c0.582-0.623,0.9-1.494,0.9-2.453c0-1.106-0.406-2.05-1.147-2.66
			c-0.777-0.617-1.491-0.786-3.316-0.786c-0.479,0-0.976,0-1.537,0.018l-2.04,0.066l-1.813-0.044l-0.527,1.172h0.417
			c0.556,0,0.834,0.17,0.932,0.573c0.1,0.406,0.147,1.112,0.147,2.223l-0.021,7.136c0,2.1-0.052,2.613-0.282,4.101l-0.025,0.162
			l0.759-0.053h1.564l0.752,0.056l-0.059-0.184c-0.3-0.928-0.423-2.104-0.423-4.057l0.022-7.094c0-1.436,0.016-1.774,0.047-2.451
			l0.01-0.21c0.736-0.099,1.057-0.117,1.409-0.117c1.729,0,2.762,0.957,2.762,2.564c0,1.212-0.605,2.198-1.58,2.568
			c-0.532,0.212-0.906,0.251-1.917,0.273l-0.106,0.002l-0.104,0.615l-0.168,0.702h0.381c0.479,0,0.813,0.167,1.531,1.161
			c1.306,1.785,2.038,2.896,3.015,4.567c0.223,0.375,0.365,0.652,0.453,0.822c0.081,0.145,0.146,0.26,0.192,0.349
			c0.041,0.073,0.07,0.126,0.098,0.17c0.062,0.082,0.146,0.212,0.25,0.376l0.041,0.066l0.978-0.068l1.642-0.043l0.671-0.027
			l0.042-0.334l-0.059-0.046C78.564,32.065,78.418,31.936,78.087,31.604z"/>
		<path fill="#FFFFFF" d="M85.036,23.708c-1.457-0.79-1.932-1.122-2.389-1.521c-0.453-0.416-0.693-0.959-0.693-1.576
			c0-1.309,1.014-2.188,2.523-2.188c1.237,0,1.975,0.379,2.72,1.396l0.046,0.062l0.444-0.064l0.126-0.535l0.319-1.013l0.292-0.729
			l-0.131-0.047c-1.139-0.381-1.593-0.482-2.424-0.548c-0.25-0.02-0.517-0.044-0.789-0.044c-3.125,0-5.221,1.786-5.221,4.444
			c0,1.033,0.374,1.991,1.053,2.697c0.61,0.611,0.93,0.821,2.855,1.864c1.274,0.692,1.856,1.116,2.308,1.681
			c0.346,0.423,0.534,0.984,0.534,1.562c0,1.475-1.252,2.586-2.91,2.586c-0.634,0-1.368-0.221-1.874-0.564
			c-0.389-0.246-0.569-0.471-0.949-1.066l-0.05-0.076l-0.472,0.102l-0.403,1.609l-0.274,0.877l0.114,0.043
			c1.091,0.4,1.51,0.486,2.387,0.57l0.149,0.012c0.246,0.018,0.479,0.036,0.699,0.036c3.325,0,5.739-2.099,5.739-4.989
			c0-0.926-0.278-1.779-0.805-2.467C87.367,25.066,86.819,24.67,85.036,23.708z"/>
		<path fill="#FFFFFF" d="M92.929,28.548l0.026-7.091c0-1.032,0.015-1.897,0.04-2.314c0.023-0.37,0.066-0.896,0.13-1.601
			l0.014-0.152l-0.813,0.057l-1.999,0.001L89.7,17.421l-0.531,1.174h0.42c0.56,0,0.838,0.169,0.931,0.573
			c0.099,0.407,0.147,1.135,0.147,2.224l-0.021,7.135c0,1.983-0.022,2.194-0.151,3.138c-0.019,0.212-0.063,0.524-0.127,0.964
			l-0.024,0.16l0.753-0.051h1.566l0.753,0.053l-0.062-0.184C93.058,31.686,92.929,30.471,92.929,28.548z"/>
		<path fill="#FFFFFF" d="M106.747,18.221c-0.974-0.515-2.053-0.731-3.848-0.774c-0.54-0.022-1.192-0.022-1.945-0.022
			c-0.444,0-1.022,0.007-1.599,0.013c-0.578,0.006-1.153,0.011-1.595,0.011h-2l-0.627-0.025l-0.525,1.173h0.416
			c0.558,0,0.835,0.171,0.933,0.573c0.1,0.404,0.146,1.111,0.146,2.225l-0.023,7.135c0,2.008-0.021,2.215-0.15,3.137
			c-0.02,0.209-0.061,0.523-0.128,0.965l-0.023,0.16l0.755-0.051h1.576c0.792,0,1.418,0.023,1.923,0.046
			c0.315,0.011,0.573,0.021,0.773,0.021c2.781,0,4.651-0.555,6.249-1.854c1.88-1.498,2.958-3.87,2.958-6.5
			C110.009,21.631,108.79,19.303,106.747,18.221z M101.255,31.285c-0.844,0-1.598-0.073-2.012-0.194
			c-0.186-0.051-0.339-0.146-0.481-0.285c-0.23-0.252-0.312-0.559-0.354-1.312l-0.006-0.116c-0.02-0.318-0.037-0.621-0.037-0.875
			l0.021-7.044l0.063-2.501l0.676-0.035c0.871-0.046,1.397-0.07,1.934-0.07c2.536,0,3.872,0.441,4.928,1.628
			c0.952,1.082,1.476,2.684,1.476,4.515C107.463,28.932,105.143,31.285,101.255,31.285z"/>
		<path fill="#FFFFFF" d="M123.005,31.66c-0.537-1.08-0.979-2.086-1.248-2.831l-3.58-9.566c-0.364-0.94-0.45-1.276-0.663-2.194
			l-0.029-0.12l-0.594,0.107l-1.484,0.229l-0.021,0.085c-0.28,1.07-0.383,1.437-0.904,2.696l-3.578,8.848
			c-0.13,0.329-0.326,0.782-0.58,1.337l-0.152,0.319c-0.185,0.384-0.331,0.69-0.45,0.915c-0.106,0.215-0.278,0.538-0.515,0.971
			l-0.036,0.068l0.167,0.258l0.651-0.049l1.482-0.001l0.848,0.053l-0.05-0.179c-0.124-0.436-0.144-0.64-0.144-0.959
			c0-0.626,0.208-1.516,0.618-2.645l0.702-1.891l1.418-0.043h2.562l1.231,0.043l0.703,2.062c0.443,1.293,0.65,1.94,0.773,2.609
			c0.031,0.138,0.062,0.341,0.102,0.597l0.063,0.423l1.06-0.074h1.371l0.922,0.056l-0.131-0.212
			C123.281,32.197,123.196,32.049,123.005,31.66z M118.113,25.605l-0.943,0.039h-2.089l-1.092-0.039l2.16-5.719L118.113,25.605z"/>
		<path fill="#FFFFFF" d="M135.216,18.221c-0.973-0.516-2.054-0.731-3.85-0.774c-0.542-0.022-1.192-0.022-1.946-0.022
			c-0.442,0-1.019,0.007-1.595,0.013c-0.578,0.006-1.153,0.011-1.596,0.011h-2.001l-0.627-0.025l-0.528,1.174h0.416
			c0.557,0,0.836,0.17,0.931,0.573c0.1,0.404,0.15,1.132,0.15,2.224l-0.021,7.136c0,1.98-0.022,2.193-0.152,3.136
			c-0.021,0.217-0.067,0.539-0.128,0.966l-0.022,0.159l0.756-0.051h1.574c0.788,0,1.417,0.023,1.919,0.047
			c0.317,0.011,0.574,0.02,0.776,0.02c2.781,0,4.65-0.555,6.247-1.854c1.881-1.498,2.961-3.87,2.961-6.5
			C138.479,21.631,137.259,19.303,135.216,18.221z M129.723,31.285c-0.842,0-1.596-0.073-2.011-0.194
			c-0.188-0.053-0.342-0.148-0.48-0.285c-0.231-0.252-0.311-0.546-0.354-1.311l-0.01-0.211c-0.018-0.285-0.034-0.555-0.034-0.779
			l0.024-7.045l0.062-2.502l0.669-0.033c0.875-0.045,1.4-0.071,1.94-0.071c2.539,0,3.874,0.442,4.928,1.627
			c0.953,1.084,1.478,2.687,1.478,4.515C135.934,28.932,133.612,31.285,129.723,31.285z"/>
		<path fill="#FFFFFF" d="M152.653,20.234c-0.722-0.381-1.557-0.548-2.87-0.579c-0.401-0.017-0.886-0.017-1.445-0.017
			c-0.328,0-0.755,0.003-1.186,0.008c-0.425,0.004-0.854,0.009-1.182,0.009h-1.486l-0.486-0.019l-0.422,0.938h0.362
			c0.493,0,0.606,0.201,0.655,0.399c0.075,0.298,0.109,0.82,0.109,1.646l-0.017,5.29c0,1.457-0.011,1.628-0.11,2.322
			c-0.015,0.16-0.049,0.401-0.095,0.717l-0.024,0.159l0.599-0.039h1.168c0.587,0,1.054,0.017,1.427,0.032
			c0.234,0.01,0.423,0.016,0.574,0.016c2.072,0,3.465-0.414,4.653-1.381c1.405-1.117,2.211-2.883,2.211-4.85
			C155.09,22.78,154.18,21.043,152.653,20.234z M148.562,29.921c-0.634,0-1.192-0.052-1.482-0.137
			c-0.137-0.043-0.248-0.11-0.346-0.204c-0.167-0.184-0.222-0.396-0.252-0.95l-0.012-0.234c-0.011-0.184-0.018-0.353-0.018-0.498
			l0.017-5.231l0.044-1.826l0.592-0.029c0.566-0.026,0.939-0.045,1.312-0.045c1.896,0,2.847,0.312,3.631,1.193
			c0.702,0.799,1.09,1.979,1.09,3.327C153.136,28.189,151.427,29.921,148.562,29.921z"/>
		<path fill="#FFFFFF" d="M162.729,29.12c-0.304,0.289-0.456,0.397-0.731,0.521c-0.192,0.087-0.403,0.154-0.613,0.187
			c-0.409,0.075-0.859,0.11-1.462,0.11c-0.878,0-1.234-0.074-1.46-0.297c-0.166-0.183-0.221-0.395-0.252-0.951l-0.01-0.186
			c-0.012-0.217-0.021-0.396-0.021-0.547v-2.289c0.549-0.026,0.798-0.026,1.198-0.026c0.47,0,0.966,0.016,1.566,0.047
			c0.152,0,0.383,0.017,0.71,0.05l0.159,0.017l-0.051-0.485l0.016-0.481l0.074-0.498l-0.411,0.034
			c-0.587,0.051-0.882,0.075-1.472,0.075h-1.773v-1.778l0.061-1.83c0.408-0.027,0.795-0.045,1.041-0.045
			c0.565,0,1.091,0.065,1.517,0.189c0.356,0.106,0.483,0.187,0.757,0.494l0.05,0.053l0.339-0.06l0.338-1.125l0.284-0.7l-0.617,0.018
			c-0.751,0.023-1.091,0.035-2.635,0.035h-2.225l-1.381-0.017l-0.42,0.937h0.36c0.496,0,0.611,0.2,0.658,0.398
			c0.072,0.302,0.108,0.839,0.108,1.647l-0.018,5.29c0,1.485-0.017,1.628-0.113,2.322c-0.017,0.159-0.047,0.398-0.096,0.715
			l-0.024,0.152l1.738-0.032l2.14,0.03c0.857,0.014,1.426,0.023,1.717,0.031c0.129,0.001,0.204,0.005,0.225,0.005
			c0.099,0,0.247,0.009,0.448,0.02l0.282,0.018l0.133-0.689l0.145-0.621l0.168-0.621l-0.384-0.183L162.729,29.12z"/>
		<path fill="#FFFFFF" d="M183.02,30.346c-0.979,0.723-1.379,0.885-2.443,1.16c-0.854,0.202-1.55,0.295-2.189,0.295
			c-4.09,0-6.839-3.088-6.839-7.685c0-4.447,2.47-7.208,6.448-7.208c1.95,0,3.271,0.571,4.406,1.906l0.037,0.045h0.509l0.225-0.842
			l0.299-0.998l0.316-0.952l-0.125-0.038c-1.162-0.381-1.645-0.509-2.589-0.63c-0.752-0.105-1.423-0.152-2.11-0.152
			c-3.113,0-5.42,0.718-7.254,2.26c-2.009,1.711-3.158,4.247-3.158,6.962c0,3.565,1.845,6.799,4.704,8.229
			c1.253,0.633,2.864,0.966,4.667,0.966c0.761,0,1.764-0.067,2.553-0.174l0.035-0.006c0.584-0.097,1.042-0.177,2.2-0.476
			l0.071-0.018l0.243-0.844l0.27-0.822l0.261-0.69l-0.452-0.345L183.02,30.346z"/>
		<path fill="#FFFFFF" d="M191.961,16.84c-4.672,0-8.195,3.59-8.195,8.347c0,4.787,3.097,8.135,7.525,8.135
			c4.897,0,8.451-3.586,8.451-8.522C199.74,19.964,196.687,16.84,191.961,16.84z M191.786,31.825c-3.175,0-5.391-2.889-5.391-7.026
			c0-3.927,2.116-6.463,5.391-6.463c3.136,0,5.328,2.907,5.328,7.068C197.114,29.305,195.022,31.825,191.786,31.825z"/>
		<path fill="#FFFFFF" d="M205.629,23.708c-1.457-0.79-1.931-1.121-2.389-1.521c-0.453-0.416-0.69-0.959-0.69-1.576
			c0-1.309,1.012-2.188,2.521-2.188c1.235,0,1.975,0.379,2.723,1.396l0.045,0.062l0.443-0.064l0.132-0.535l0.317-1.013l0.286-0.731
			l-0.13-0.043c-1.132-0.381-1.584-0.483-2.421-0.548c-0.236-0.02-0.516-0.045-0.788-0.045c-3.124,0-5.221,1.786-5.221,4.445
			c0,1.034,0.375,1.991,1.054,2.696c0.604,0.607,0.923,0.819,2.854,1.864c1.271,0.689,1.854,1.115,2.309,1.681
			c0.346,0.424,0.534,0.984,0.534,1.562c0,1.474-1.252,2.584-2.909,2.584c-0.639,0-1.372-0.219-1.874-0.562
			c-0.391-0.247-0.58-0.484-0.95-1.066l-0.051-0.076l-0.473,0.101l-0.404,1.612l-0.275,0.875l0.118,0.043
			c1.091,0.401,1.508,0.486,2.388,0.57l0.149,0.012c0.247,0.018,0.48,0.037,0.704,0.037c3.322,0,5.733-2.1,5.733-4.99
			c0-0.925-0.278-1.778-0.805-2.468C207.961,25.065,207.411,24.668,205.629,23.708z"/>
		<path fill="#FFFFFF" d="M217.568,28.548l0.021-7.153l0.08-2.581c1.618,0.02,1.982,0.039,2.662,0.125
			c0.322,0.048,0.612,0.117,0.885,0.211c0.403,0.146,0.582,0.279,0.987,0.67l0.043,0.039l0.439-0.035l0.119-0.632l0.236-0.928
			l0.295-0.887l-1.78,0.037c-1.968,0.039-3.666,0.075-5.124,0.075s-3.088-0.037-4.975-0.08l-1.401-0.032l-0.075,0.854l-0.13,1.001
			l-0.054,0.614l0.468,0.03l0.042-0.04c0.376-0.352,0.562-0.479,0.95-0.643c0.648-0.26,1.248-0.341,2.672-0.357
			c0.136,0,0.301-0.004,0.486-0.01c0.229-0.005,0.498-0.013,0.809-0.014c0.008,0.219,0.012,0.421,0.017,0.604
			c0.006,0.269,0.01,0.49,0.022,0.656c0.021,0.672,0.021,1.108,0.021,1.316l-0.021,7.136l-0.002,0.099
			c-0.019,1.903-0.021,2.102-0.15,3.039c-0.017,0.18-0.059,0.492-0.146,0.96l-0.034,0.165l0.808-0.051l1.562-0.001l0.734,0.056
			l-0.06-0.185C217.684,31.719,217.568,30.584,217.568,28.548z"/>
		<path fill="#FFFFFF" d="M233.684,31.66c-0.538-1.088-0.981-2.093-1.246-2.831l-3.577-9.566c-0.356-0.927-0.446-1.267-0.662-2.194
			l-0.03-0.12l-1.537,0.261l-0.539,0.077l-0.021,0.084c-0.277,1.059-0.38,1.421-0.902,2.696l-3.58,8.85
			c-0.106,0.273-0.298,0.726-0.58,1.337l-0.091,0.191c-0.211,0.444-0.375,0.792-0.51,1.041c-0.085,0.164-0.238,0.466-0.516,0.971
			l-0.039,0.071l0.175,0.255l0.647-0.049h1.481l0.852,0.053l-0.05-0.179c-0.126-0.446-0.147-0.656-0.147-0.958
			c0-0.622,0.208-1.514,0.62-2.645l0.699-1.891l1.421-0.043h2.566l1.224,0.041l0.705,2.064c0.429,1.252,0.645,1.928,0.771,2.608
			c0.045,0.188,0.085,0.482,0.147,0.887l0.02,0.14l1.057-0.078h1.373l0.921,0.057l-0.131-0.213
			C233.959,32.191,233.878,32.045,233.684,31.66z M228.799,25.605l-0.945,0.039h-2.087l-1.091-0.039l2.161-5.719L228.799,25.605z"/>
		<path fill="#FFFFFF" d="M251.419,32.012c-0.737-0.74-1.567-1.83-2.776-3.635l-2.515-3.712l-0.485-0.654
			c1.14-0.605,1.803-1.069,2.342-1.633c0.663-0.721,1.03-1.721,1.03-2.816c0-1.272-0.466-2.357-1.317-3.061
			c-0.893-0.709-1.714-0.901-3.817-0.901c-0.553,0-1.122,0-1.77,0.023l-2.359,0.076l-2.08-0.051l-0.591,1.312h0.452
			c0.655,0,0.981,0.202,1.091,0.677c0.119,0.467,0.174,1.285,0.174,2.573l-0.027,8.242c0,2.306-0.041,2.928-0.321,4.738
			l-0.022,0.162l0.85-0.065h1.807l0.844,0.067l-0.062-0.185c-0.346-1.079-0.489-2.44-0.489-4.695l0.024-8.19
			c0-1.648,0.018-2.039,0.057-2.819l0.012-0.271c0.857-0.112,1.23-0.131,1.646-0.131c2.009,0,3.207,1.11,3.207,2.973
			c0,1.413-0.704,2.556-1.837,2.985c-0.614,0.247-1.048,0.289-2.221,0.317l-0.107,0.002l-0.117,0.697l-0.189,0.789h0.416
			c0.631,0,1.032,0.301,1.79,1.347c1.517,2.083,2.361,3.364,3.479,5.275c0.25,0.42,0.418,0.742,0.518,0.951
			c0.09,0.151,0.158,0.277,0.213,0.376c0.053,0.101,0.093,0.17,0.123,0.215c0.066,0.087,0.156,0.225,0.293,0.441l0.04,0.066
			l1.116-0.083l1.896-0.049l0.755-0.029l0.053-0.357l-0.064-0.051C251.986,32.562,251.819,32.415,251.419,32.012z"/>
		<path fill="#FFFFFF" d="M256.102,28.548l0.02-7.091c0-1.152,0.02-1.95,0.041-2.314c0.02-0.336,0.06-0.818,0.135-1.601l0.013-0.152
			l-0.812,0.056l-2.003,0.001l-0.626-0.026l-0.526,1.174h0.418c0.557,0,0.836,0.17,0.929,0.574c0.104,0.402,0.149,1.109,0.149,2.222
			l-0.021,7.137c0,1.993-0.021,2.201-0.15,3.138c-0.018,0.19-0.06,0.489-0.13,0.963l-0.021,0.161l0.753-0.051l1.567-0.002
			l0.751,0.055l-0.061-0.184C256.222,31.678,256.102,30.501,256.102,28.548z"/>
		<path fill="#FFFFFF" d="M266.106,18.551c1.685,0,2.823,0.492,3.81,1.646l0.034,0.047h0.458l0.197-0.744l0.26-0.865l0.278-0.839
			l-0.122-0.04c-0.994-0.323-1.412-0.437-2.244-0.546c-0.654-0.09-1.232-0.132-1.83-0.132c-2.7,0-4.701,0.623-6.297,1.962
			c-1.741,1.487-2.736,3.688-2.736,6.042c0,3.094,1.599,5.896,4.077,7.142c1.092,0.551,2.49,0.837,4.047,0.837
			c0.677,0,1.549-0.059,2.222-0.15c0.502-0.084,0.898-0.148,1.933-0.413l0.072-0.017l0.213-0.74l0.232-0.712l0.229-0.614
			l-0.413-0.311l-0.076,0.057c-0.85,0.619-1.193,0.759-2.11,0.996c-0.752,0.178-1.351,0.258-1.892,0.258
			c-3.535,0-5.908-2.667-5.908-6.638C260.541,20.935,262.675,18.551,266.106,18.551z"/>
		<path fill="#FFFFFF" d="M285.652,32.581c-0.235-0.385-0.315-0.529-0.513-0.922c-0.533-1.07-0.976-2.074-1.243-2.832l-3.579-9.566
			c-0.36-0.925-0.447-1.266-0.666-2.195l-0.026-0.12l-1.541,0.261l-0.537,0.078l-0.022,0.084c-0.271,1.057-0.373,1.418-0.898,2.696
			l-3.58,8.849c-0.138,0.351-0.337,0.812-0.581,1.336l-0.021,0.05c-0.243,0.51-0.433,0.911-0.583,1.187
			c-0.118,0.236-0.301,0.586-0.515,0.971l-0.037,0.07l0.175,0.256l0.649-0.049h1.481l0.851,0.053l-0.051-0.179
			c-0.122-0.432-0.145-0.637-0.145-0.96c0-0.635,0.208-1.527,0.615-2.643l0.702-1.893l1.42-0.041h2.564l1.226,0.041l0.704,2.062
			c0.44,1.288,0.645,1.934,0.771,2.609c0.035,0.146,0.066,0.352,0.105,0.615l0.066,0.408l1.057-0.075h1.372l0.918,0.057
			L285.652,32.581z M280.252,25.605l-0.942,0.039h-2.086l-1.093-0.039l2.158-5.719L280.252,25.605z"/>
	</g>
</g>
</svg>
